HIERARCHY
ROOT pelvis
{
  OFFSET 0 100 0
  CHANNELS 6 Xposition Yposition Zposition Zrotation Xrotation Yrotation
  JOINT pelvis_right_femur
  {
    OFFSET -10.78128 -3.44521 -0.5502486
    CHANNELS 3 Zrotation Xrotation Yrotation
    JOINT right_femur_tibia
    {
      OFFSET -0.8047443 -44.0398 -0.1307829
      CHANNELS 3 Zrotation Xrotation Yrotation
      JOINT right_tibia_foot
      {
        OFFSET 3.006224 -47.83518 -5
        CHANNELS 3 Zrotation Xrotation Yrotation
        End Site
        {
          OFFSET 0 -5 15
        }
      }
    }
  }
  JOINT pelvis_left_femur
  {
    OFFSET 10.78128 -3.44521 -0.5502486
    CHANNELS 3 Zrotation Xrotation Yrotation
    JOINT left_femur_tibia
    {
      OFFSET 0.8047443 -44.0398 -0.1307829
      CHANNELS 3 Zrotation Xrotation Yrotation
      JOINT left_tibia_foot
      {
        OFFSET -4.370144 -48.10324 -4.275266
        CHANNELS 3 Zrotation Xrotation Yrotation
        End Site
        {
          OFFSET 0 -5 15
        }
      }
    }
  }
  JOINT pelvis_spine1
  {
    OFFSET 0 6.468898 -3.129235
    CHANNELS 3 Zrotation Xrotation Yrotation
    JOINT spine1
    {
      OFFSET 0 23.15396 4.99043
      CHANNELS 3 Zrotation Xrotation Yrotation
      JOINT spine2
      {
        OFFSET 0 20.79997 -5.064912
        CHANNELS 3 Zrotation Xrotation Yrotation
        JOINT neck
        {
          OFFSET 0 14.38658 9.616178
          CHANNELS 3 Zrotation Xrotation Yrotation
          End Site
          {
            OFFSET 0 20 0
          }
        }
      }
      JOINT right_manubrium
      {
        OFFSET -5.722621 16.35077 3.967754
        CHANNELS 3 Zrotation Xrotation Yrotation
        JOINT right_clavicle
        {
          OFFSET -13.16364 1.694482 -4.693211
          CHANNELS 3 Zrotation Xrotation Yrotation
          JOINT right_humerus
          {
            OFFSET -28.5034 -0.3100689 -2.792744
            CHANNELS 3 Zrotation Xrotation Yrotation
            JOINT right_radius
            {
              OFFSET -25.15693 0.02248979 -1.271978
              CHANNELS 3 Zrotation Xrotation Yrotation
              End Site
              {
                OFFSET -15 0 0
              }
            }
          }
        }
      }
      JOINT left_manubrium
      {
        OFFSET 5.722621 16.35077 3.967754
        CHANNELS 3 Zrotation Xrotation Yrotation
        JOINT left_clavicle
        {
          OFFSET 13.16364 1.694482 -4.693211
          CHANNELS 3 Zrotation Xrotation Yrotation
          JOINT left_humerus
          {
            OFFSET 29.39168 -1.063119 -2.237045
            CHANNELS 3 Zrotation Xrotation Yrotation
            JOINT left_radius
            {
              OFFSET 24.59957 -0.9528479 0.9047498
              CHANNELS 3 Zrotation Xrotation Yrotation
              End Site
              {
                OFFSET 15 -0 -0
              }
            }
          }
        }
      }
    }
  }
}
MOTION
Frames: 15
Frame Time: 0.0416666666667
-229.4266 103.6664 2570 -0.4378912 -3.082059 -13.91355 5.229357 4.729462 0.4459757 -0 6.04891 -0 -12.12772 -7.739589 1.149383 2.315647 -24.19951 -2.825794 -0 45.32975 -0 -0.7551737 -2.509514 10.31749 -0.2535131 -2.410098 8.302788 0.3380846 12.87581 -5.497035 -1.283594 19.80452 6.615764 5.757671 -15.43194 2.596502 2.490001 -27.53587 12.76461 83.76634 25.72125 -9.885017 -0 0 25.59449 -20.55021 10.87082 10.22266 4.644243 -24.86406 -7.323537 -95.51383 7.408963 36.69828 0 0 -3.901487 10.84586 11.79839 0.2012716
-230.2914 102.8286 2575.094 -1.221623 -2.979573 -14.03575 6.229035 7.04852 0.7257576 -0 6.206938 -0 -11.3166 -9.826156 0.792795 4.890659 -25.92086 -0.3626327 -0 32.01946 -0 0.5877726 -2.003433 11.58595 -0.2391811 -2.433359 8.259395 0.3406073 12.74483 -5.440772 -1.291109 19.76277 6.71729 5.731092 -15.54089 2.72633 2.484852 -27.60222 12.74427 83.60017 25.76871 -9.578058 -0 0 25.69731 -20.72293 11.03344 10.52541 4.680695 -24.73442 -7.084693 -95.55728 7.462211 36.83702 0 0 -3.772571 10.75331 11.81143 0.3057696
-231.0457 101.5482 2580.4 -2.08729 -2.861721 -14.3236 7.005469 9.39629 0.9920086 -0 7.022624 -0 -10.29696 -12.64057 0.2250308 6.495136 -26.25621 0.9462513 -0 20.50783 -0 1.075274 -1.493241 12.84356 -0.2323131 -2.441404 8.220821 0.3362052 12.66195 -5.393457 -1.28207 19.75015 6.770893 5.698913 -15.6342 2.827717 2.46447 -27.63798 12.72422 83.504 25.80957 -9.358879 -0 0 25.74843 -20.85855 11.14668 10.73597 4.700002 -24.62665 -6.921627 -95.57169 7.514804 36.88811 0 0 -3.669006 10.71242 11.83257 0.3363691
-231.7193 100.0861 2586.044 -2.627163 -2.968193 -14.79588 6.939011 12.14226 0.9408888 -0 8.656367 -0 -9.535827 -15.11101 -0.1127553 6.579486 -25.80594 0.558537 -0 12.64598 -0 0.7472917 -1.326235 14.14438 -0.2317975 -2.43518 8.189714 0.3272559 12.62833 -5.358536 -1.259988 19.76307 6.77843 5.663865 -15.70638 2.895513 2.432063 -27.64615 12.70736 83.47783 25.83718 -9.234537 -0 0 25.75141 -20.94917 11.20875 10.84943 4.700688 -24.54678 -6.838432 -95.56097 7.561912 36.86362 0 0 -3.59423 10.71592 11.85802 0.3043696
-232.3535 98.70435 2592.107 -2.69943 -3.466889 -15.39371 5.899903 15.19486 0.5445942 -0 11.46048 -0 -9.31109 -15.95382 0.02043388 5.216907 -24.75641 -1.405008 -0 8.743589 -0 -0.1071277 -1.625952 15.55552 -0.2362079 -2.417381 8.167639 0.3162638 12.64008 -5.337983 -1.229061 19.79585 6.745638 5.628502 -15.75434 2.928296 2.391724 -27.63195 12.69577 83.51432 25.84728 -9.201779 -0 0 25.71442 -20.99297 11.22333 10.87117 4.683833 -24.4976 -6.830762 -95.53027 7.59943 36.7799 0 0 -3.549925 10.7537 11.88414 0.2246504
-232.9894 97.62934 2598.582 -2.393854 -4.420648 -16.00161 4.144194 18.15192 -0.02834087 -0 15.70006 -0 -9.68382 -14.40987 0.6261337 2.882597 -23.01125 -4.400129 -0 8.096102 -0 -1.149865 -2.337842 17.05429 -0.2442957 -2.391065 8.155118 0.3050583 12.69109 -5.33228 -1.192856 19.84294 6.679324 5.594786 -15.77721 2.927336 2.347106 -27.60043 12.69035 83.60329 25.83854 -9.251776 -0 0 25.64628 -20.99243 11.19636 10.81149 4.652017 -24.47921 -6.89013 -95.48414 7.62479 36.65161 0 0 -3.536381 10.81678 11.9084 0.1103232
-233.6578 97.02726 2605.358 -1.910256 -5.782748 -16.48617 2.089785 20.48882 -0.5952665 -0 21.3875 -0 -10.59425 -10.53191 1.573517 0.1958753 -20.45297 -7.757522 -0 9.572863 -0 -2.129328 -3.340891 18.53476 -0.2551731 -2.358922 8.151891 0.294602 12.77482 -5.340752 -1.153875 19.90002 6.585867 5.564037 -15.77575 2.895506 2.300921 -27.5555 12.69102 83.73448 25.81214 -9.373558 -0 0 25.55453 -20.95252 11.13406 10.68209 4.608443 -24.48992 -7.006811 -95.42591 7.636995 36.48953 0 0 -3.552864 10.89868 11.92948 -0.02914759
-234.3691 96.98271 2612.239 -1.451502 -7.418142 -16.74184 0.1504993 21.71708 -1.075337 -0 28.21789 -0 -11.92512 -5.06108 2.698966 -2.289388 -17.09803 -10.91761 -0 12.01198 -0 -2.927045 -4.524727 19.85555 -0.2682828 -2.323149 8.15722 0.2851764 12.885 -5.36199 -1.113726 19.96393 6.470876 5.537102 -15.75174 2.836498 2.255052 -27.49991 12.69702 83.89843 25.77087 -9.55568 -0 0 25.4452 -20.87932 11.04221 10.49451 4.556464 -24.52697 -7.171087 -95.35792 7.636215 36.30098 0 0 -3.59791 10.99517 11.94698 -0.187436
-235.1081 97.48306 2618.986 -1.161352 -9.139847 -16.72309 -1.360001 21.49606 -1.492068 -0 35.57653 -0 -13.51325 0.8933588 3.842875 -4.208442 -13.10953 -13.55225 -0 14.43993 -0 -3.541574 -5.819466 20.87855 -0.2832857 -2.285592 8.170119 0.2766642 13.01561 -5.394171 -1.073492 20.03223 6.339448 5.514564 -15.70753 2.754409 2.210893 -27.43573 12.70724 84.08638 25.71835 -9.78668 -0 0 25.32337 -20.77937 10.92617 10.25996 4.499418 -24.58705 -7.37344 -95.28201 7.623324 36.09139 0 0 -3.669453 11.10329 11.961 -0.3600012
-235.8403 98.41868 2625.372 -1.102474 -10.74456 -16.45124 -2.28323 19.68463 -1.90145 -0 42.61855 -0 -15.13824 6.199394 4.837002 -5.409774 -8.735063 -15.56523 -0 16.18075 -0 -4.042555 -7.195891 21.49187 -0.299945 -2.247916 8.189489 0.268783 13.16073 -5.435245 -1.034057 20.10284 6.196552 5.496898 -15.64579 2.653593 2.169665 -27.36478 12.72041 84.28984 25.65857 -10.05502 -0 0 25.1937 -20.65927 10.79111 9.989567 4.440571 -24.66651 -7.604351 -95.19998 7.599598 35.86569 0 0 -3.764782 11.22054 11.97185 -0.5428187
-236.5267 99.60538 2631.22 -1.26108 -12.03387 -15.99854 -2.624069 16.33418 -2.315158 -0 48.41832 -0 -16.51977 9.96616 5.487278 -5.913845 -4.241774 -17.01654 -0 16.88947 -0 -4.517869 -8.654996 21.62629 -0.318032 -2.21169 8.214185 0.2612345 13.31439 -5.48302 -0.9963194 20.17369 6.047336 5.484557 -15.56946 2.53864 2.132604 -27.28897 12.73527 84.50035 25.59559 -10.34896 -0 0 25.06085 -20.52546 10.64231 9.694609 4.383068 -24.76148 -7.854085 -95.11399 7.566562 35.62937 0 0 -3.880398 11.34421 11.97987 -0.731516
-237.1403 100.8254 2636.43 -1.566284 -12.81937 -15.4611 -2.500125 11.64285 -2.666332 -0 52.16234 -0 -17.35535 11.67961 5.59552 -5.854553 0.1185199 -18.03024 -0 16.52466 -0 -5.02438 -10.21734 21.27408 -0.3372569 -2.178385 8.24304 0.2537902 13.47048 -5.535202 -0.9612798 20.24263 5.897259 5.477985 -15.48176 2.414395 2.101024 -27.21042 12.75064 84.70946 25.53339 -10.65652 -0 0 24.92958 -20.38413 10.48522 9.386621 4.329832 -24.86785 -8.112617 -95.02672 7.525969 35.38909 0 0 -4.011853 11.47115 11.98532 -0.9209206
-237.6748 101.8758 2640.975 -1.916442 -12.92577 -14.93288 -2.055079 5.898242 -2.818975 -0 53.338 -0 -17.40585 11.22542 5.029751 -5.429198 4.115783 -18.72272 -0 15.27656 -0 -5.544745 -11.91276 20.51152 -0.3572175 -2.149301 8.274861 0.2463373 13.62286 -5.589416 -0.9300423 20.30743 5.752065 5.477559 -15.38624 2.285952 2.076259 -27.13157 12.76548 84.90889 25.47569 -10.96562 -0 0 24.80459 -20.24099 10.32546 9.077306 4.283418 -24.98126 -8.369745 -94.94143 7.479823 35.15282 0 0 -4.153663 11.59763 11.98837 -1.104941
-238.1447 102.6106 2644.892 -2.207538 -12.21549 -14.48825 -1.381269 -0.5674146 -2.60606 -0 51.86237 -0 -16.59055 8.85798 3.804794 -4.858368 7.540229 -19.16299 -0 13.47228 -0 -5.955834 -13.76627 19.51578 -0.3773639 -2.12547 8.308432 0.2388996 13.76558 -5.643256 -0.9037446 20.36584 5.617589 5.483505 -15.28681 2.158582 2.059526 -27.05509 12.77896 85.09091 25.42576 -11.26436 -0 0 24.69041 -20.10124 10.1688 8.778277 4.245837 -25.09714 -8.615373 -94.8618 7.430393 34.92973 0 0 -4.299373 11.71943 11.9891 -1.276739
-238.5769 102.962 2648.268 -2.359121 -10.65061 -14.17437 -0.4902456 -7.393692 -1.900369 -0 48.09753 -0 -15.03706 5.16701 2.119793 -4.34717 10.21871 -19.36568 -0 11.48056 -0 -6.030366 -15.77749 18.5519 -0.39699 -2.107549 8.342501 0.2316356 13.89315 -5.694362 -0.8834268 20.4158 5.499393 5.495762 -15.18768 2.037567 2.05171 -26.98378 12.79048 85.24876 25.38617 -11.5415 -0 0 24.59097 -19.96943 10.02089 8.500619 4.218372 -25.21079 -8.83999 -94.79169 7.380192 34.72945 0 0 -4.441863 11.83204 11.98752 -1.429216
